G04 MADE WITH FRITZING*
G04 WWW.FRITZING.ORG*
G04 DOUBLE SIDED*
G04 HOLES PLATED*
G04 CONTOUR ON CENTER OF CONTOUR VECTOR*
%ASAXBY*%
%FSLAX23Y23*%
%MOIN*%
%OFA0B0*%
%SFA1.0B1.0*%
%ADD10C,0.088000*%
%ADD11C,0.085000*%
%ADD12C,0.092000*%
%ADD13C,0.080000*%
%ADD14C,0.049370*%
%ADD15C,0.072992*%
%ADD16R,0.085000X0.085000*%
%ADD17R,0.092000X0.092000*%
%ADD18R,0.072992X0.072992*%
%LNMASK0*%
G90*
G70*
G54D10*
X110Y1311D03*
X110Y1211D03*
X110Y1111D03*
X110Y1011D03*
X110Y911D03*
X110Y811D03*
X110Y711D03*
X110Y611D03*
X110Y511D03*
X110Y411D03*
X110Y1311D03*
X110Y1211D03*
X110Y1111D03*
X110Y1011D03*
X110Y911D03*
X110Y811D03*
X110Y711D03*
X110Y611D03*
X110Y511D03*
X110Y411D03*
X210Y411D03*
X210Y511D03*
X210Y611D03*
X210Y711D03*
X210Y811D03*
X210Y911D03*
X210Y1011D03*
X210Y1111D03*
X210Y1211D03*
X210Y1311D03*
X1310Y1411D03*
X1410Y1411D03*
X1510Y1411D03*
X1610Y1411D03*
X1710Y1411D03*
X1310Y1411D03*
X1410Y1411D03*
X1510Y1411D03*
X1610Y1411D03*
X1710Y1411D03*
X1710Y1511D03*
X1610Y1511D03*
X1510Y1511D03*
X1410Y1511D03*
X1310Y1511D03*
X2910Y411D03*
X2910Y511D03*
X2910Y611D03*
X2910Y711D03*
X2910Y811D03*
X2910Y911D03*
X2910Y1011D03*
X2910Y1111D03*
X2910Y1211D03*
X2910Y1311D03*
X2910Y411D03*
X2910Y511D03*
X2910Y611D03*
X2910Y711D03*
X2910Y811D03*
X2910Y911D03*
X2910Y1011D03*
X2910Y1111D03*
X2910Y1211D03*
X2910Y1311D03*
X2810Y1311D03*
X2810Y1211D03*
X2810Y1111D03*
X2810Y1011D03*
X2810Y911D03*
X2810Y811D03*
X2810Y711D03*
X2810Y611D03*
X2810Y511D03*
X2810Y411D03*
G54D11*
X2410Y211D03*
X1810Y211D03*
X2410Y311D03*
X1810Y311D03*
X2410Y411D03*
X1810Y411D03*
X2410Y511D03*
X1810Y511D03*
X2410Y611D03*
X1810Y611D03*
X2410Y711D03*
X1810Y711D03*
X2410Y811D03*
X1810Y811D03*
X2410Y911D03*
X1810Y911D03*
X2410Y1011D03*
X1810Y1011D03*
X2410Y1111D03*
X1810Y1111D03*
X2410Y1211D03*
X1810Y1211D03*
X2410Y1311D03*
X1810Y1311D03*
X2410Y1411D03*
X1810Y1411D03*
X2410Y1511D03*
X1810Y1511D03*
G54D10*
X1511Y412D03*
X1411Y412D03*
X1311Y412D03*
X1211Y412D03*
G54D12*
X710Y1411D03*
X810Y1411D03*
X910Y1411D03*
G54D10*
X810Y111D03*
X710Y111D03*
G54D11*
X810Y511D03*
X710Y511D03*
X810Y1011D03*
X910Y1011D03*
G54D13*
X810Y811D03*
X910Y811D03*
G54D10*
X410Y111D03*
X510Y111D03*
G54D11*
X1110Y1111D03*
X1110Y1411D03*
X3011Y212D03*
X2711Y212D03*
G54D14*
X2111Y312D03*
G54D10*
X1661Y1212D03*
X1661Y1112D03*
X1661Y1012D03*
X1661Y912D03*
X1661Y812D03*
X1661Y712D03*
G54D15*
X1112Y911D03*
X1210Y911D03*
G54D14*
X2711Y812D03*
G54D16*
X2410Y211D03*
G54D17*
X710Y1411D03*
G54D16*
X810Y511D03*
X810Y1011D03*
X1110Y1111D03*
X3011Y212D03*
G54D18*
X1112Y911D03*
G04 End of Mask0*
M02*