M48
INCH
T10C0.038000
T11C0.035000
T12C0.042000
T13C0.030000
T14C0.015748
T15C0.031497
%
T10
X016609Y007121
X016609Y008121
X016609Y009121
X016609Y010121
X016609Y011121
X016609Y012121
X005101Y001110
X004101Y001110
X007101Y001110
X008101Y001110
X012109Y004121
X013109Y004121
X014109Y004121
X015109Y004121
X028101Y004110
X028101Y005110
X028101Y006110
X028101Y007110
X028101Y008110
X028101Y009110
X028101Y010110
X028101Y011110
X028101Y012110
X028101Y013110
X029101Y013110
X029101Y012110
X029101Y011110
X029101Y010110
X029101Y009110
X029101Y008110
X029101Y007110
X029101Y006110
X029101Y005110
X029101Y004110
X013101Y015110
X014101Y015110
X015101Y015110
X016101Y015110
X017101Y015110
X017101Y014110
X016101Y014110
X015101Y014110
X014101Y014110
X013101Y014110
X002101Y013110
X002101Y012110
X002101Y011110
X002101Y010110
X002101Y009110
X002101Y008110
X002101Y007110
X002101Y006110
X002101Y005110
X002101Y004110
X001101Y004110
X001101Y005110
X001101Y006110
X001101Y007110
X001101Y008110
X001101Y009110
X001101Y010110
X001101Y011110
X001101Y012110
X001101Y013110
T11
X027109Y002121
X030109Y002121
X011101Y014110
X011101Y011110
X009101Y010110
X008101Y010110
X007101Y005110
X008101Y005110
X018101Y015110
X024101Y015110
X018101Y014110
X024101Y014110
X018101Y013110
X024101Y013110
X018101Y012110
X024101Y012110
X018101Y011110
X024101Y011110
X018101Y010110
X024101Y010110
X018101Y009110
X024101Y009110
X018101Y008110
X024101Y008110
X018101Y007110
X024101Y007110
X018101Y006110
X024101Y006110
X018101Y005110
X024101Y005110
X018101Y004110
X024101Y004110
X018101Y003110
X024101Y003110
X018101Y002110
X024101Y002110
T12
X009101Y014110
X008101Y014110
X007101Y014110
T13
X009102Y008110
X008101Y008110
T14
X027109Y008121
X021109Y003121
T15
X012101Y009110
X011116Y009110
T00
M30
